<svg xmlns="http://www.w3.org/2000/svg" width="256" height="256" viewBox="0 0 256 256">
  <rect width="256" height="256" fill="#0d1117" rx="32" ry="32"/>
  <path d="M128 32C73.6 32 30 75.6 30 130c0 43.5 28.2 80.4 67.2 93.4 4.9.9 6.7-2.1 6.7-4.7 0-2.3-.1-10-.1-18.2-27.3 5.9-33.1-11.6-33.1-11.6-4.5-11.3-10.9-14.3-10.9-14.3-8.9-6.1.7-6 .7-6 9.8.7 15 10.1 15 10.1 8.7 15 22.9 10.6 28.5 8.1.9-6.3 3.4-10.6 6.2-13.1-21.8-2.5-44.7-10.9-44.7-48.5 0-10.7 3.8-19.5 10.1-26.4-.9-2.5-4.4-12.4.9-25.9 0 0 8.2-2.6 27 10.1 7.8-2.2 16.2-3.3 24.6-3.3 8.3 0 16.8 1.1 24.6 3.3 18.7-12.7 26.9-10.1 26.9-10.1 5.3 13.5 2 23.4 1 25.9 6.3 6.9 10.1 15.7 10.1 26.4 0 37.7-23 46-44.9 48.4 3.5 3 6.6 8.9 6.6 18 0 13.1-.1 23.6-.1 26.8 0 2.6 1.8 5.7 6.8 4.7C197.8 210.4 226 173.5 226 130c0-54.4-43.6-98-98-98z" fill="#39d353"/>
</svg>